<?xml version="1.0" encoding="UTF-8"?>
<svg version="1.1" xmlns="http://www.w3.org/2000/svg" width="399" height="399">
<path d="M0 0 C1.5646523 -0.00299587 3.12930386 -0.00639939 4.69395447 -0.01017761 C8.92776078 -0.01898023 13.16154685 -0.0213542 17.39536142 -0.0219934 C20.04685963 -0.02270626 22.69835276 -0.02484508 25.3498497 -0.02749062 C34.61849034 -0.0367331 43.88711663 -0.04082705 53.15576172 -0.04003906 C61.76484861 -0.03943922 70.37387265 -0.0499755 78.98294365 -0.06578273 C86.39812738 -0.07890753 93.8132907 -0.08422086 101.22848594 -0.08358365 C105.64648837 -0.08333003 110.06443494 -0.08610553 114.48242569 -0.0967617 C118.64394355 -0.1065257 122.80535314 -0.1064657 126.96687508 -0.09924507 C128.48325702 -0.09820932 129.999646 -0.10050111 131.51601601 -0.10660553 C143.84389956 -0.15296795 156.04953835 0.6790824 167.90966797 4.27026367 C168.61389893 4.48271729 169.31812988 4.6951709 170.04370117 4.9140625 C199.60635051 14.30912584 221.26128325 35.75847917 235.49707031 62.76416016 C238.81575393 69.34589457 240.99540697 75.91950996 242.53466797 83.14526367 C242.69623508 83.88302253 242.8578022 84.62078138 243.02426529 85.38089657 C244.60494432 93.19770039 244.96430585 100.86980878 245.14697266 108.82910156 C245.18451126 110.24036723 245.2223534 111.65162486 245.26047897 113.06287479 C245.62902184 127.40316083 245.71580321 141.74593951 245.73485661 156.09046054 C245.73785471 158.24829317 245.74196824 160.40612127 245.74636078 162.56395149 C245.75988007 169.37529791 245.76963321 176.18663313 245.77356267 182.99799198 C245.77807096 190.75723609 245.79581179 198.51630651 245.82456326 206.27549785 C245.8463016 212.35958902 245.85627261 218.44363153 245.85760379 224.52776104 C245.85863881 228.12674086 245.86426776 231.72555386 245.8824234 235.3244915 C246.05849067 272.31748816 238.6486335 302.33028688 212.53466797 329.52026367 C188.53646713 352.61287202 159.10313804 360.28227093 126.57421875 360.30639648 C125.09929789 360.31103651 123.62437819 360.31606272 122.14945984 360.32144165 C118.17155574 360.33445759 114.19366843 360.34098981 110.2157464 360.34545231 C107.71878879 360.34840189 105.22183558 360.35251015 102.72488022 360.35695648 C94.87868561 360.37060579 87.03250128 360.38028377 79.18629563 360.38415837 C70.19246907 360.3886266 61.19879543 360.40612775 52.2050153 360.43515897 C45.21173879 360.45693254 38.21850479 360.466871 31.22519481 360.46819949 C27.06798886 360.46923681 22.9109271 360.47491053 18.75375748 360.4930191 C-16.78756492 360.6387973 -50.0656607 358.38687369 -77.46533203 333.14526367 C-78.28880127 332.3933374 -78.28880127 332.3933374 -79.12890625 331.6262207 C-95.9580143 316.09701617 -107.33410561 297.61565803 -112.46533203 275.14526367 C-112.71668128 274.06642835 -112.71668128 274.06642835 -112.97310829 272.96579838 C-114.73050022 264.55192139 -114.76215665 256.22084245 -114.75585938 247.66845703 C-114.76185543 246.0310333 -114.76866342 244.39361237 -114.7762146 242.75619507 C-114.79377611 238.336342 -114.7985659 233.91656653 -114.79984617 229.49668193 C-114.80127438 226.72569599 -114.80555667 223.95472936 -114.81084061 221.18374825 C-114.82931109 211.48902271 -114.83751531 201.79435192 -114.8359375 192.09960938 C-114.83473819 183.1081761 -114.85580696 174.11698366 -114.88742483 165.12561125 C-114.91371161 157.36974696 -114.92429957 149.61396072 -114.92302668 141.85805231 C-114.92252051 137.24204777 -114.92800996 132.62625735 -114.94938278 128.01029778 C-114.96897466 123.66067216 -114.96874918 119.31146027 -114.95434952 114.9618187 C-114.9522857 113.38099489 -114.95681396 111.80014372 -114.96907043 110.21936607 C-115.1615256 83.63885932 -106.62571301 59.52550292 -89.46533203 39.14526367 C-88.45019531 37.9290332 -88.45019531 37.9290332 -87.41455078 36.68823242 C-64.48127004 10.17035362 -34.27798819 -0.0131188 0 0 Z M-21.46533203 76.14526367 C-22.21361219 79.88666448 -22.58675807 82.65547399 -22.5721283 86.37089539 C-22.57061264 87.40352509 -22.56909698 88.43615479 -22.5675354 89.50007629 C-22.56079803 90.62266342 -22.55406067 91.74525055 -22.54711914 92.90185547 C-22.5425193 94.68837524 -22.5425193 94.68837524 -22.53782654 96.51098633 C-22.52880496 99.77421448 -22.51545963 103.03739493 -22.50086284 106.30060172 C-22.48710928 109.73414829 -22.48069818 113.16770617 -22.47401428 116.60127258 C-22.44993868 128.28630272 -22.41432342 139.971282 -22.36938477 151.65625 C-22.34463209 158.11279431 -22.32739158 164.56931802 -22.31782538 171.02590305 C-22.31241461 174.43247308 -22.30322214 177.83893397 -22.28443718 181.2454586 C-22.03905312 229.35364346 -22.03905312 229.35364346 -32.46533203 240.14526367 C-38.50261278 244.66968953 -45.13779309 246.15155261 -52.46533203 247.14526367 C-52.63596266 250.91592828 -52.80108828 254.68681589 -52.96533203 258.45776367 C-53.01302734 259.5102832 -53.06072266 260.56280273 -53.10986328 261.6472168 C-53.33473382 266.86742562 -53.52605257 272.08896528 -53.62158203 277.31323242 C-53.64027344 278.19648193 -53.65896484 279.07973145 -53.67822266 279.98974609 C-53.67426515 282.35911954 -53.67426515 282.35911954 -51.46533203 284.14526367 C-33.88052322 284.66029991 -16.40997686 279.26310484 -3.46533203 267.14526367 C12.32780069 250.17408842 14.88649341 225.51226313 14.76171875 203.40722656 C14.76115258 202.00601713 14.76147519 200.60480711 14.76260376 199.20359802 C14.76317027 195.45248586 14.7515317 191.70150542 14.73745584 187.95042348 C14.72482951 184.01069282 14.72376872 180.0709581 14.72140503 176.13121033 C14.71522484 168.69432808 14.69886163 161.25750565 14.67870605 153.82064956 C14.65623835 145.34405065 14.64532647 136.86744865 14.63531518 128.3908273 C14.61449172 110.97559877 14.57785958 93.56045208 14.53466797 76.14526367 C2.65466797 76.14526367 -9.22533203 76.14526367 -21.46533203 76.14526367 Z M21.53466797 76.14526367 C21.53466797 144.78526367 21.53466797 213.42526367 21.53466797 284.14526367 C40.1544642 284.85508813 40.1544642 284.85508813 58.53466797 283.14526367 C58.53466797 269.61526367 58.53466797 256.08526367 58.53466797 242.14526367 C96.07526478 239.81354958 96.07526478 239.81354958 103.67236328 243.78588867 C108.31991635 248.09250156 110.75830531 253.47662339 113.19189453 259.24389648 C115.54861378 264.33612404 118.8879207 268.73439443 122.15966797 273.27026367 C122.74200195 274.12845703 123.32433594 274.98665039 123.92431641 275.87084961 C124.46862305 276.66523438 125.01292969 277.45961914 125.57373047 278.27807617 C126.0502002 278.97819824 126.52666992 279.67832031 127.01757812 280.3996582 C129.24027657 282.95715641 130.96788136 284.00739056 134.39456177 284.30892944 C136.751679 284.37764437 139.09861066 284.3698157 141.45654297 284.34057617 C142.31652893 284.33774628 143.17651489 284.33491638 144.06256104 284.33200073 C146.80340618 284.32082517 149.54392195 284.29572547 152.28466797 284.27026367 C154.14534033 284.26023048 156.00601782 284.25110522 157.86669922 284.24291992 C162.42281529 284.22089443 166.97868582 284.18638264 171.53466797 284.14526367 C169.6120293 280.15163124 167.18415223 276.58954747 164.65966797 272.95776367 C164.17570557 272.25723877 163.69174316 271.55671387 163.19311523 270.83496094 C159.16358769 265.01596889 155.0696189 259.24323134 150.97363281 253.47094727 C146.01531018 246.45843919 141.2548436 239.31951292 136.53466797 232.14526367 C137.01709961 231.83935303 137.49953125 231.53344238 137.99658203 231.21826172 C159.53214443 217.46796385 176.51426402 202.43578406 182.83935547 176.52416992 C186.99462369 153.82960399 181.99416491 132.39649733 169.22216797 113.45776367 C156.55713962 95.39758237 136.72611364 83.5854557 115.53466797 78.14526367 C84.62066345 72.99292958 52.8750927 76.14526367 21.53466797 76.14526367 Z " fill="#0B3B65" transform="translate(135.46533203125,16.854736328125)"/>
<path d="M0 0 C47.96595819 0.04319034 47.96595819 0.04319034 66.93652344 16.99169922 C75.80265269 26.30113494 79.25292929 36.91361686 79.13574219 49.45263672 C78.43879906 61.5794471 74.15996417 71.99560535 65.26464844 80.34326172 C52.74593693 90.21217929 35.52255806 93.36350922 19.95996094 93.32373047 C18.71320084 93.32516556 18.71320084 93.32516556 17.44125366 93.32662964 C15.69830244 93.32730616 13.95534863 93.32548893 12.21240234 93.32128906 C9.53314665 93.31589228 6.8540555 93.3212727 4.17480469 93.32763672 C2.47818973 93.32697664 0.78157488 93.32569695 -0.91503906 93.32373047 C-2.12116348 93.32676682 -2.12116348 93.32676682 -3.35165405 93.3298645 C-8.96412325 93.30589628 -8.96412325 93.30589628 -10.07910156 92.19091797 C-10.17963664 89.36588466 -10.21525873 86.56526512 -10.20849609 83.73974609 C-10.21024841 82.85363144 -10.21200073 81.96751678 -10.21380615 81.05455017 C-10.21822596 78.11040315 -10.21528623 75.16631566 -10.21191406 72.22216797 C-10.21258706 70.18575021 -10.21355706 68.14933252 -10.21481323 66.11291504 C-10.21629038 61.83894081 -10.21413511 57.56498744 -10.20947266 53.29101562 C-10.20377536 47.79933258 -10.20705428 42.3076984 -10.21304512 36.81601715 C-10.21665028 32.60914743 -10.21551236 28.40228938 -10.21291733 24.19541931 C-10.21224793 22.16991673 -10.21307691 20.14441311 -10.21539688 18.11891174 C-10.21792266 15.29327567 -10.21408387 12.4677199 -10.20849609 9.64208984 C-10.21052032 8.79633896 -10.21254456 7.95058807 -10.21463013 7.07920837 C-10.1834479 -1.38715717 -7.73685128 0.0503785 0 0 Z " fill="#0D3C66" transform="translate(204.0791015625,128.80908203125)"/>
<path d="M0 0 C0.99 0.33 1.98 0.66 3 1 C5.59994859 1.11972619 8.17516735 1.18527241 10.77612305 1.20532227 C11.96183899 1.22017166 11.96183899 1.22017166 13.17150879 1.23532104 C15.78488162 1.26691393 18.39827263 1.29168474 21.01171875 1.31640625 C22.82347588 1.33697769 24.63522823 1.35797421 26.44697571 1.37937927 C31.21611664 1.43458035 35.98530074 1.48399831 40.7545166 1.53222656 C45.62088871 1.5824559 50.4871981 1.63813449 55.35351562 1.69335938 C64.90229018 1.80091694 74.45111918 1.90236728 84 2 C84 2.33 84 2.66 84 3 C55.95 3 27.9 3 -1 3 C-1 71.64 -1 140.28 -1 211 C-1.33 211 -1.66 211 -2 211 C-2 143.68 -2 76.36 -2 7 C-2.66 7 -3.32 7 -4 7 C-3.99907821 7.65008278 -3.99815641 8.30016556 -3.99720669 8.96994781 C-3.97503204 24.8564763 -3.95853057 40.74299932 -3.94818783 56.62953949 C-3.94305202 64.31243957 -3.93606165 71.99532925 -3.92456055 79.67822266 C-3.91453013 86.38192614 -3.90812687 93.08562209 -3.90591151 99.78933287 C-3.90461846 103.33224642 -3.90162322 106.87513845 -3.89426994 110.41804504 C-3.83763699 138.75774379 -3.83763699 138.75774379 -5 152 C-5.33 152 -5.66 152 -6 152 C-6 102.83 -6 53.66 -6 3 C-4.02 2.67 -2.04 2.34 0 2 C0 1.34 0 0.68 0 0 Z " fill="#133452" transform="translate(157,89)"/>
<path d="M0 0 C12.87 0 25.74 0 39 0 C39 0.33 39 0.66 39 1 C21.675 1.495 21.675 1.495 4 2 C3.32194086 7.42447311 2.85450543 12.45784298 2.87060547 17.86889648 C2.86885315 18.60972977 2.86710083 19.35056305 2.86529541 20.11384583 C2.86093666 22.53295313 2.86379147 24.95198587 2.8671875 27.37109375 C2.86651325 29.06120314 2.8655422 30.75131244 2.86428833 32.44142151 C2.86281991 35.96738619 2.86494021 39.4933254 2.86962891 43.01928711 C2.87535645 47.54783088 2.8720228 52.07631578 2.86605644 56.60485744 C2.86245381 60.08684234 2.8635875 63.56881311 2.86618423 67.05079842 C2.86685275 68.72183298 2.86602771 70.39286882 2.86370468 72.0639019 C2.86117974 74.38825801 2.86501504 76.71251645 2.87060547 79.03686523 C2.86858124 79.73135773 2.86655701 80.42585022 2.86447144 81.14138794 C2.60908342 84.3489503 2.60908342 84.3489503 4 87 C6.8116338 87.08861992 9.59858255 87.11522355 12.41015625 87.09765625 C13.67320839 87.09553383 13.67320839 87.09553383 14.96177673 87.09336853 C17.66205335 87.08775263 20.36224828 87.07519748 23.0625 87.0625 C24.88867068 87.05748705 26.71484266 87.05292379 28.54101562 87.04882812 C33.02737542 87.03777804 37.51367384 87.02050279 42 87 C42.33 87.66 42.66 88.32 43 89 C28.85786438 91.3570226 14.33720878 90 0 90 C0 60.3 0 30.6 0 0 Z " fill="#15325A" transform="translate(195,131)"/>
<path d="M0 0 C2.61829149 2.61829149 3.00174336 4.8773113 4 8.4375 C4.33 9.59121094 4.66 10.74492188 5 11.93359375 C7.53360923 21.84180897 8.37790637 31.47046161 8.61230469 41.68383789 C8.64984329 43.09510356 8.68768543 44.50636119 8.725811 45.91761112 C9.09435387 60.25789715 9.18113524 74.60067584 9.20018864 88.94519687 C9.20318674 91.1030295 9.20730027 93.2608576 9.21169281 95.41868782 C9.2252121 102.23003424 9.23496525 109.04136946 9.2388947 115.85272831 C9.24340299 123.61197242 9.26114382 131.37104283 9.2898953 139.13023418 C9.31163363 145.21432535 9.32160464 151.29836786 9.32293582 157.38249737 C9.32397084 160.98147719 9.3295998 164.58029018 9.34775543 168.17922783 C9.43130427 185.71030679 9.31458249 202.55830236 3.5 219.3125 C3.0978125 220.50488281 2.695625 221.69726562 2.28125 222.92578125 C1.12352564 225.7036138 -0.06336669 227.71995207 -2 230 C-1.07067788 224.50760187 0.89183791 219.41588458 2.74609375 214.1796875 C6.0666562 203.70717889 6.27978403 193.31069082 6.22705078 182.42114258 C6.2264856 180.77422086 6.22680532 179.12729863 6.22793579 177.4803772 C6.22850612 173.04104258 6.21680402 168.60181756 6.20278788 164.16250825 C6.19022678 159.51139533 6.1891058 154.86027949 6.18673706 150.20915222 C6.18053803 141.41570982 6.16414868 132.62231757 6.14403808 123.82889718 C6.12162983 113.81191106 6.11067329 103.79492247 6.10064721 93.7779175 C6.07978096 73.18525043 6.04463584 52.59262838 6 32 C5.67 32 5.34 32 5 32 C4.87882812 30.87722656 4.75765625 29.75445312 4.6328125 28.59765625 C3.78405306 20.94343588 2.84173749 13.48973248 1 6 C0.64963394 4.00291344 0.30830925 2.00401011 0 0 Z " fill="#93A7BA" transform="translate(372,84)"/>
<path d="M0 0 C0.495 2.97 0.495 2.97 1 6 C0.01 5.67 -0.98 5.34 -2 5 C-2 4.34 -2 3.68 -2 3 C-20.81 3.495 -20.81 3.495 -40 4 C-40 16.54 -40 29.08 -40 42 C-40.33 42 -40.66 42 -41 42 C-41 28.47 -41 14.94 -41 1 C-34.9775 0.835 -28.955 0.67 -22.75 0.5 C-19.90713379 0.42168945 -19.90713379 0.42168945 -17.00683594 0.34179688 C-15.49935013 0.30073818 -13.99186322 0.25971983 -12.484375 0.21875 C-11.70594238 0.1971582 -10.92750977 0.17556641 -10.12548828 0.15332031 C-6.74833761 0.0619872 -3.37870625 0 0 0 Z " fill="#2F4765" transform="translate(236,258)"/>
<path d="M0 0 C0 0.66 0 1.32 0 2 C0.56847656 1.97679688 1.13695312 1.95359375 1.72265625 1.9296875 C8.37502733 1.77420637 13.72822601 2.95271293 19.8125 5.6875 C20.864375 6.120625 21.91625 6.55375 23 7 C23.66 6.67 24.32 6.34 25 6 C25 6.66 25 7.32 25 8 C25.66 8 26.32 8 27 8 C27 8.66 27 9.32 27 10 C27.99 10 28.98 10 30 10 C30 10.99 30 11.98 30 13 C30.99 13 31.98 13 33 13 C33.495 14.485 33.495 14.485 34 16 C30.22314947 14.53933957 26.5898192 12.87195813 22.9375 11.125 C12.81423421 6.45096962 3.05410865 3.48956074 -8 2 C-4.91190305 0.23537317 -3.76687864 0 0 0 Z " fill="#60758F" transform="translate(247,92)"/>
<path d="M0 0 C-1.28148025 2.56296049 -2.15611519 2.59318218 -4.8125 3.5 C-6.9502697 4.25673264 -8.97060194 4.98530097 -11 6 C-12.99396053 6.99698026 -14.99355877 7.85767058 -17.0625 8.6875 C-17.73410156 8.95949219 -18.40570313 9.23148438 -19.09765625 9.51171875 C-21 10 -21 10 -24 9 C-20.57375937 4.90457174 -16.87997447 3.45118642 -12 1.6875 C-11.2884375 1.41099609 -10.576875 1.13449219 -9.84375 0.84960938 C-6.11209671 -0.53235551 -3.79059077 -1.21758053 0 0 Z " fill="#44617A" transform="translate(102,22)"/>
<path d="M0 0 C0.66 0.33 1.32 0.66 2 1 C1.34 2.65 0.68 4.3 0 6 C-0.66 6 -1.32 6 -2 6 C-1.505 6.928125 -1.01 7.85625 -0.5 8.8125 C1 12 1 12 1 15 C1.66 15.33 2.32 15.66 3 16 C2.01 16 1.02 16 0 16 C-1.82421875 13.59375 -1.82421875 13.59375 -3.6875 10.5 C-4.31011719 9.4790625 -4.93273437 8.458125 -5.57421875 7.40625 C-6.04472656 6.6121875 -6.51523437 5.818125 -7 5 C-4.702779 3.25728062 -2.40133271 1.60088848 0 0 Z " fill="#4C6281" transform="translate(278,244)"/>
<path d="M0 0 C0.66 0 1.32 0 2 0 C2 0.66 2 1.32 2 2 C2.99 2.33 3.98 2.66 5 3 C3.84334866 6.46995401 2.81924446 6.88556665 0 9 C-0.33 9.99 -0.66 10.98 -1 12 C-3.0625 12.6875 -3.0625 12.6875 -5 13 C-3.024 4.032 -3.024 4.032 0 0 Z " fill="#0C335E" transform="translate(312,209)"/>
<path d="M0 0 C2.6427068 2.35679992 4.07178895 4.76914003 5.625 7.9375 C6.05039062 8.79214844 6.47578125 9.64679688 6.9140625 10.52734375 C8.98028869 15.2320962 9.11024346 19.0937068 9.0625 24.25 C9.05347656 25.51328125 9.04445313 26.7765625 9.03515625 28.078125 C9.02355469 29.04234375 9.01195312 30.0065625 9 31 C8.67 31 8.34 31 8 31 C7.93941406 30.11957031 7.87882812 29.23914063 7.81640625 28.33203125 C7.73261719 27.17058594 7.64882813 26.00914062 7.5625 24.8125 C7.48128906 23.66394531 7.40007812 22.51539063 7.31640625 21.33203125 C7.04596188 18.48401829 6.62478253 15.78789518 6 13 C5.01 12.67 4.02 12.34 3 12 C2.05078125 9.78515625 2.05078125 9.78515625 1.3125 7.0625 C1.06113281 6.16660156 0.80976563 5.27070313 0.55078125 4.34765625 C0 2 0 2 0 0 Z " fill="#94A5B7" transform="translate(274,151)"/>
<path d="M0 0 C7.29836285 2.5798864 7.29836285 2.5798864 8.9765625 5.9765625 C9.62602088 8.64224987 10 11.25296939 10 14 C10.99 14.33 11.98 14.66 13 15 C12.67 16.32 12.34 17.64 12 19 C9.99239214 16.21373218 7.99524047 13.42013417 6 10.625 C5.42765625 9.8309375 4.8553125 9.036875 4.265625 8.21875 C3.45351563 7.07792969 3.45351563 7.07792969 2.625 5.9140625 C2.12226563 5.2123291 1.61953125 4.5105957 1.1015625 3.78759766 C0 2 0 2 0 0 Z " fill="#73849F" transform="translate(288,272)"/>
<path d="M0 0 C0 0.66 0 1.32 0 2 C-9.96856181 4.58045976 -18.75343542 5.38747513 -29 5 C-29 4.67 -29 4.34 -29 4 C-28.17757813 3.96261719 -27.35515625 3.92523438 -26.5078125 3.88671875 C-20.0236175 3.50485507 -14.32160145 2.70075432 -8.16796875 0.6328125 C-5.39835655 -0.17561484 -2.8646644 -0.22615772 0 0 Z " fill="#153754" transform="translate(301,370)"/>
<path d="M0 0 C0.66 1.32 1.32 2.64 2 4 C0.54712339 5.33927721 -0.91247259 6.67126847 -2.375 8 C-3.59316406 9.11375 -3.59316406 9.11375 -4.8359375 10.25 C-7 12 -7 12 -9 12 C-9 10.02 -9 8.04 -9 6 C-7.88625 5.7525 -6.7725 5.505 -5.625 5.25 C-1.95384802 4.38994661 -1.95384802 4.38994661 -0.5625 1.875 C-0.376875 1.25625 -0.19125 0.6375 0 0 Z " fill="#395A76" transform="translate(345,343)"/>
<path d="M0 0 C1.38460153 3.73664899 0.5769907 6.00942794 -0.75 9.6875 C-1.12125 10.73808594 -1.4925 11.78867187 -1.875 12.87109375 C-2.24625 13.90363281 -2.6175 14.93617188 -3 16 C-3.58848001 17.74827602 -4.17250043 19.4980662 -4.75 21.25 C-5.1625 22.4875 -5.575 23.725 -6 25 C-7.05078125 23.12109375 -7.05078125 23.12109375 -8 21 C-7.1875 19.0625 -7.1875 19.0625 -6 17 C-5.62331656 15.34259285 -5.27942455 13.67654729 -5 12 C-4.34 12 -3.68 12 -3 12 C-2.95101563 11.38511719 -2.90203125 10.77023437 -2.8515625 10.13671875 C-2.77679688 9.32847656 -2.70203125 8.52023437 -2.625 7.6875 C-2.55539062 6.88699219 -2.48578125 6.08648437 -2.4140625 5.26171875 C-2 3 -2 3 0 0 Z " fill="#2B4C66" transform="translate(375,293)"/>
<path d="M0 0 C2.64 0.33 5.28 0.66 8 1 C5.4033438 3.5966562 3.06184625 4.10687691 -0.4375 5.1875 C-1.59121094 5.55230469 -2.74492187 5.91710937 -3.93359375 6.29296875 C-7 7 -7 7 -10 6 C-9.34 5.01 -8.68 4.02 -8 3 C-4.375 2.8125 -4.375 2.8125 -1 3 C-0.67 2.01 -0.34 1.02 0 0 Z " fill="#5A718D" transform="translate(252,213)"/>
<path d="M0 0 C0.33 0.66 0.66 1.32 1 2 C1.66 2 2.32 2 3 2 C3 2.66 3 3.32 3 4 C3.99 4 4.98 4 6 4 C6 4.99 6 5.98 6 7 C6.99 7 7.98 7 9 7 C9.33 7.99 9.66 8.98 10 10 C5.98696492 8.443154 2.0907072 6.68861143 -1.8125 4.875 C-3.55466797 4.06675781 -3.55466797 4.06675781 -5.33203125 3.2421875 C-6.21246094 2.83226563 -7.09289062 2.42234375 -8 2 C-4.90279155 1.12159004 -3.09354597 1.00564594 0 2 C0 1.34 0 0.68 0 0 Z " fill="#6B8098" transform="translate(271,98)"/>
<path d="M0 0 C1.72784048 5.18352145 -0.0063655 9.14051591 -2 14 C-2.35858516 15.32676508 -2.7018576 16.65835921 -3 18 C-3.66 18 -4.32 18 -5 18 C-5.33 20.31 -5.66 22.62 -6 25 C-6.33 25 -6.66 25 -7 25 C-6.48446258 16.57955552 -3.7852065 7.570413 0 0 Z " fill="#99AFBE" transform="translate(30,81)"/>
<path d="M0 0 C3.38025595 0.26001969 6.09243904 1.04711963 9.25 2.25 C9.25 2.91 9.25 3.57 9.25 4.25 C10.57 4.58 11.89 4.91 13.25 5.25 C6.83518742 5.67765417 1.36404596 4.10743168 -4.75 2.25 C-2.75 0.25 -2.75 0.25 0 0 Z " fill="#61788D" transform="translate(100.75,369.75)"/>
<path d="M0 0 C1.32 0.33 2.64 0.66 4 1 C1.62905707 3.65171248 -0.83568087 5.1490052 -4 6.75 C-5.299375 7.42289062 -5.299375 7.42289062 -6.625 8.109375 C-9 9 -9 9 -12 8 C-10.625 6.5 -10.625 6.5 -9 5 C-8.34 5 -7.68 5 -7 5 C-7 4.34 -7 3.68 -7 3 C-6.030625 2.87625 -5.06125 2.7525 -4.0625 2.625 C-2.5465625 2.315625 -2.5465625 2.315625 -1 2 C-0.67 1.34 -0.34 0.68 0 0 Z " fill="#728A9E" transform="translate(323,360)"/>
<path d="M0 0 C3.00617269 3.00617269 2.59585316 5.82381598 3 10 C3.66 10 4.32 10 5 10 C5.33 13.63 5.66 17.26 6 21 C3.31612245 18.31612245 2.90453004 15.82898587 1.875 12.1875 C1.52179687 10.96417969 1.16859375 9.74085938 0.8046875 8.48046875 C0.11068235 5.47872805 -0.17454331 3.05450799 0 0 Z " fill="#153656" transform="translate(24,286)"/>
<path d="M0 0 C0.66 1.32 1.32 2.64 2 4 C2.99 4 3.98 4 5 4 C5.33 3.34 5.66 2.68 6 2 C6.24954005 3.43410368 6.47392642 4.87260072 6.6875 6.3125 C6.81511719 7.11300781 6.94273437 7.91351563 7.07421875 8.73828125 C7 11 7 11 5.51953125 12.79296875 C5.01808594 13.19128906 4.51664062 13.58960938 4 14 C3.32739649 12.23141309 2.66211605 10.46003984 2 8.6875 C1.62875 7.70136719 1.2575 6.71523437 0.875 5.69921875 C0 3 0 3 0 0 Z " fill="#325576" transform="translate(312,142)"/>
<path d="M0 0 C1.98 0.66 3.96 1.32 6 2 C6 3.32 6 4.64 6 6 C4.824375 5.9690625 4.824375 5.9690625 3.625 5.9375 C1.01885039 5.81315937 1.01885039 5.81315937 -1 7 C-1 6.01 -1 5.02 -1 4 C-1.66 3.67 -2.32 3.34 -3 3 C-2.01 2.01 -1.02 1.02 0 0 Z " fill="#274B70" transform="translate(254,136)"/>
<path d="M0 0 C3.17721797 0.21911848 3.99398516 0.99310063 6.125 3.4375 C6.74375 4.283125 7.3625 5.12875 8 6 C8.66 6.66 9.32 7.32 10 8 C9.34 8 8.68 8 8 8 C8.33 9.32 8.66 10.64 9 12 C5.40365256 8.50640535 2.16548033 4.88901869 -1 1 C-0.67 0.67 -0.34 0.34 0 0 Z " fill="#546E8C" transform="translate(294,116)"/>
<path d="M0 0 C1.32 0 2.64 0 4 0 C2.59023295 3.03852705 0.91129772 5.5939595 -1.125 8.25 C-1.66382813 8.95640625 -2.20265625 9.6628125 -2.7578125 10.390625 C-3.16773438 10.92171875 -3.57765625 11.4528125 -4 12 C-4.66 11.34 -5.32 10.68 -6 10 C-4 7 -4 7 -1 6 C-0.67 4.02 -0.34 2.04 0 0 Z " fill="#607A90" transform="translate(360,325)"/>
<path d="M0 0 C-1.01953125 1.51953125 -1.01953125 1.51953125 -3 3 C-5.67108574 3.05546517 -8.05292823 2.96547069 -10.6875 2.6875 C-11.38939453 2.62626953 -12.09128906 2.56503906 -12.81445312 2.50195312 C-14.5442967 2.34897376 -16.27238497 2.17637398 -18 2 C-18 1.67 -18 1.34 -18 1 C-15.56348622 0.63737003 -13.12623023 0.28461036 -10.6875 -0.0625 C-9.99720703 -0.16626953 -9.30691406 -0.27003906 -8.59570312 -0.37695312 C-5.30415164 -0.83808836 -3.19783876 -1.06594625 0 0 Z " fill="#7A8EA3" transform="translate(107,299)"/>
<path d="M0 0 C0.33 0.66 0.66 1.32 1 2 C0.36328125 3.875 0.36328125 3.875 -0.6875 6 C-1.18830078 7.051875 -1.18830078 7.051875 -1.69921875 8.125 C-3.21910635 10.31582897 -4.55687434 11.01246289 -7 12 C-7 8.19654123 -5.86213669 7.22298985 -3.5 4.3125 C-2.8503125 3.50425781 -2.200625 2.69601563 -1.53125 1.86328125 C-1.0259375 1.24839844 -0.520625 0.63351563 0 0 Z " fill="#617A90" transform="translate(46,56)"/>
<path d="M0 0 C6.0018137 -0.21824777 11.19233704 0.4943096 17 2 C17 2.33 17 2.66 17 3 C10.34058028 4.27947184 6.18453008 3.81115003 0 1 C0 0.67 0 0.34 0 0 Z " fill="#7790A5" transform="translate(282,18)"/>
<path d="M0 0 C1.32 0.33 2.64 0.66 4 1 C2.64978174 5.41889613 0.73884332 7.34345343 -3 10 C-3.33 9.01 -3.66 8.02 -4 7 C-3.34 7 -2.68 7 -2 7 C-2 6.01 -2 5.02 -2 4 C-1.34 4 -0.68 4 0 4 C0 2.68 0 1.36 0 0 Z " fill="#5B738B" transform="translate(104,249)"/>
<path d="M0 0 C1.15957207 3.47871621 0.77456651 4.34219645 -0.4375 7.6875 C-0.86869141 8.89986328 -0.86869141 8.89986328 -1.30859375 10.13671875 C-1.53675781 10.75160156 -1.76492187 11.36648437 -2 12 C-4.30903272 8.01647791 -3.86516528 5.49885947 -3 1 C-2.01 0.67 -1.02 0.34 0 0 Z " fill="#6B8095" transform="translate(111,238)"/>
<path d="M0 0 C0 3 0 3 -1.75 5.04296875 C-2.4925 5.75066406 -3.235 6.45835937 -4 7.1875 C-4.7425 7.90292969 -5.485 8.61835938 -6.25 9.35546875 C-7.11625 10.16951172 -7.11625 10.16951172 -8 11 C-8.66 10.67 -9.32 10.34 -10 10 C-9.67 9.01 -9.34 8.02 -9 7 C-8.175 6.690625 -7.35 6.38125 -6.5 6.0625 C-5.675 5.711875 -4.85 5.36125 -4 5 C-3.34786708 2.97536745 -3.34786708 2.97536745 -3 1 C-2.01 0.67 -1.02 0.34 0 0 Z " fill="#61778E" transform="translate(275,200)"/>
<path d="M0 0 C1.2684375 0.433125 1.2684375 0.433125 2.5625 0.875 C6.00470017 2.05187082 6.00470017 2.05187082 9.625 2.875 C13.13981672 4.04660557 14.65962399 5.19154878 17 8 C12.76677156 7.37954537 9.47709705 5.89476441 5.6875 3.9375 C4.61886719 3.38964844 3.55023438 2.84179688 2.44921875 2.27734375 C1.64097656 1.85582031 0.83273438 1.43429687 0 1 C0 0.67 0 0.34 0 0 Z " fill="#ADBFCC" transform="translate(76,362)"/>
<path d="M0 0 C5.45479185 0.56820748 9.91059256 1.94637945 15 4 C13.5 5.1875 13.5 5.1875 11 6 C8.21175762 5.27101296 5.62334908 4.1843275 3 3 C3 2.34 3 1.68 3 1 C2.01 0.67 1.02 0.34 0 0 Z " fill="#7990A3" transform="translate(299,21)"/>
<path d="M0 0 C3.94139078 1.66751148 6.7892812 4.22710649 10 7 C9.67 7.66 9.34 8.32 9 9 C5.4781747 7.04343039 2.65557215 5.04899025 0 2 C0 1.34 0 0.68 0 0 Z " fill="#617691" transform="translate(263,141)"/>
<path d="M0 0 C0.66 0 1.32 0 2 0 C2.69670416 1.78810766 3.38211189 3.58062052 4.0625 5.375 C4.63677734 6.87160156 4.63677734 6.87160156 5.22265625 8.3984375 C6 11 6 11 5 13 C4.34 13 3.68 13 3 13 C3 11.02 3 9.04 3 7 C2.34 7 1.68 7 1 7 C0.67 4.69 0.34 2.38 0 0 Z " fill="#133857" transform="translate(370,85)"/>
<path d="M0 0 C0.33 1.32 0.66 2.64 1 4 C-2.28804981 6.91227269 -4.59885603 8.49701212 -9 9 C-6 6 -3 3 0 0 Z " fill="#57708D" transform="translate(299,228)"/>
<path d="M0 0 C2.0625 0.4375 2.0625 0.4375 4 1 C4 2.98 4 4.96 4 7 C3.01 7 2.02 7 1 7 C0.34 5.02 -0.32 3.04 -1 1 C-0.67 0.67 -0.34 0.34 0 0 Z " fill="#4F6C85" transform="translate(33,314)"/>
<path d="M0 0 C3.39417765 3.12621626 5.6062718 5.56541027 7 10 C0.77696527 6.46800731 0.77696527 6.46800731 -1 4 C-0.6875 1.8125 -0.6875 1.8125 0 0 Z " fill="#546D89" transform="translate(242,268)"/>
<path d="M0 0 C-3.85756507 2.15305957 -6.55129785 3.39253254 -11 3 C-11.33 2.01 -11.66 1.02 -12 0 C-3.42857143 -1.28571429 -3.42857143 -1.28571429 0 0 Z " fill="#526B86" transform="translate(100,260)"/>
<path d="M0 0 C3.28465896 2.79196011 5.01321958 6.23196817 7 10 C7 10.66 7 11.32 7 12 C6.34 12 5.68 12 5 12 C1.24039194 8.24039194 0.41105855 5.24099655 0 0 Z " fill="#688296" transform="translate(362,66)"/>
<path d="M0 0 C-0.33 0.66 -0.66 1.32 -1 2 C-3.33744294 2.46806645 -5.69739079 2.82669794 -8.0625 3.125 C-9.99802734 3.37636719 -9.99802734 3.37636719 -11.97265625 3.6328125 C-13.47119141 3.81457031 -13.47119141 3.81457031 -15 4 C-12.83900627 1.83900627 -11.4789582 1.28436284 -8.625 0.3125 C-7.46871094 -0.09548828 -7.46871094 -0.09548828 -6.2890625 -0.51171875 C-3.79944692 -1.04278009 -2.38446982 -0.81115526 0 0 Z " fill="#9DB0C0" transform="translate(102,22)"/>
<path d="M0 0 C-3.60051153 2.40034102 -6.96144535 4.32187705 -11.375 3.625 C-11.91125 3.41875 -12.4475 3.2125 -13 3 C-12.01 3 -11.02 3 -10 3 C-10 2.34 -10 1.68 -10 1 C-6.21812119 -0.83691257 -4.05431692 -1.15837626 0 0 Z " fill="#8197A7" transform="translate(311,369)"/>
<path d="M0 0 C1.63085724 3.26171448 0.8496907 6.78796004 0.64453125 10.37109375 C0.73536548 13.15205849 0.73536548 13.15205849 3.01171875 14.84765625 C3.66785156 15.22792969 4.32398437 15.60820312 5 16 C3.02 16 1.04 16 -1 16 C-1.02685095 13.52076199 -1.04676547 11.0418116 -1.0625 8.5625 C-1.07506836 7.50192383 -1.07506836 7.50192383 -1.08789062 6.41992188 C-1.09653588 4.61306441 -1.05220011 2.80612397 -1 1 C-0.67 0.67 -0.34 0.34 0 0 Z " fill="#7E8DA6" transform="translate(82,286)"/>
<path d="M0 0 C3.30053201 2.58302505 3.39015007 4.99241477 4 9 C4.66 9.33 5.32 9.66 6 10 C5.01 10 4.02 10 3 10 C0.75 7.25 0.75 7.25 -1 4 C-0.75 1.625 -0.75 1.625 0 0 Z " fill="#5E728D" transform="translate(275,250)"/>
<path d="M0 0 C0 0.99 0 1.98 0 3 C-3 5.1875 -3 5.1875 -6 7 C-6.66 6.34 -7.32 5.68 -8 5 C-5.47211993 2.20127563 -3.79588866 0.54226981 0 0 Z " fill="#44637C" transform="translate(67,38)"/>
<path d="M0 0 C0.33 0 0.66 0 1 0 C1.19324053 4.15467129 1.09242143 7.3382625 -1 11 C-3.125 11.8125 -3.125 11.8125 -5 12 C-3.41037341 7.96479403 -1.71767682 3.98188718 0 0 Z " fill="#6D8399" transform="translate(143,264)"/>
<path d="M0 0 C2.375 0.5 2.375 0.5 5 2 C6.08241903 4.66525288 6.49272107 7.1407915 7 10 C4.4000702 7.48972295 2.00908773 5.0136316 0 2 C0 1.34 0 0.68 0 0 Z " fill="#74869E" transform="translate(280,261)"/>
<path d="M0 0 C0.98484375 0.00902344 1.9696875 0.01804687 2.984375 0.02734375 C4.10585937 0.04474609 4.10585937 0.04474609 5.25 0.0625 C5.25 0.3925 5.25 0.7225 5.25 1.0625 C4.55132812 1.19527344 3.85265625 1.32804687 3.1328125 1.46484375 C2.22273438 1.64144531 1.31265625 1.81804688 0.375 2 C-0.52992187 2.17402344 -1.43484375 2.34804688 -2.3671875 2.52734375 C-4.74956317 2.96213701 -4.74956317 2.96213701 -6.75 4.0625 C-7.74 3.7325 -8.73 3.4025 -9.75 3.0625 C-9.75 2.4025 -9.75 1.7425 -9.75 1.0625 C-6.43929162 0.06140485 -3.44915231 -0.04106134 0 0 Z " fill="#103655" transform="translate(117.75,18.9375)"/>
<path d="M0 0 C0.33 0 0.66 0 1 0 C1 2.31 1 4.62 1 7 C-0.65 7.66 -2.3 8.32 -4 9 C-2.80100302 5.9168649 -1.52299523 2.93720508 0 0 Z " fill="#5A718D" transform="translate(312,209)"/>
<path d="M0 0 C3.3125 0.125 3.3125 0.125 7 1 C8.9375 4.0625 8.9375 4.0625 10 7 C6.42032008 5.34784004 3.22017048 3.26875648 0 1 C0 0.67 0 0.34 0 0 Z " fill="#74859A" transform="translate(281,108)"/>
<path d="M0 0 C0.66 0.33 1.32 0.66 2 1 C1 3 0 5 -1 7 C-4.0625 7.625 -4.0625 7.625 -7 8 C-6.02133662 6.85373678 -5.04205413 5.70800212 -4.0625 4.5625 C-3.51722656 3.92441406 -2.97195312 3.28632812 -2.41015625 2.62890625 C-1.63204305 1.73008851 -0.84063472 0.84063472 0 0 Z " fill="#768FA1" transform="translate(57,44)"/>
<path d="M0 0 C-0.33 0.99 -0.66 1.98 -1 3 C-2.8125 3.875 -2.8125 3.875 -5 4 C-7.25 2.5625 -7.25 2.5625 -9 1 C-5.57367167 -0.61798838 -3.61944899 -1.34053666 0 0 Z " fill="#0D3459" transform="translate(89,362)"/>
<path d="M0 0 C1.65 0 3.3 0 5 0 C2.22719294 3.08089673 -0.06326356 4.68775452 -4 6 C-4.33 5.01 -4.66 4.02 -5 3 C-3.35 2.34 -1.7 1.68 0 1 C0 0.67 0 0.34 0 0 Z " fill="#678198" transform="translate(331,355)"/>
<path d="M0 0 C-0.33 0.99 -0.66 1.98 -1 3 C-1.66 3 -2.32 3 -3 3 C-3.66 4.32 -4.32 5.64 -5 7 C-5.66 6.01 -6.32 5.02 -7 4 C-4.83989616 0.75984424 -3.8842653 0 0 0 Z " fill="#3A5A75" transform="translate(54,51)"/>
<path d="M0 0 C3.08089673 2.77280706 4.68775452 5.06326356 6 9 C3.5625 7.875 3.5625 7.875 1 6 C0.1875 2.8125 0.1875 2.8125 0 0 Z " fill="#637891" transform="translate(236,259)"/>
<path d="M0 0 C0.33 0.66 0.66 1.32 1 2 C0.34 2 -0.32 2 -1 2 C-1.20625 2.639375 -1.4125 3.27875 -1.625 3.9375 C-3 6 -3 6 -6.125 6.75 C-7.548125 6.87375 -7.548125 6.87375 -9 7 C-6.24479785 4.04070881 -3.53372712 1.96318174 0 0 Z " fill="#798CA0" transform="translate(289,237)"/>
<path d="M0 0 C0.66 1.32 1.32 2.64 2 4 C0.02 5.32 -1.96 6.64 -4 8 C-4 4.09161134 -2.49432124 2.88405893 0 0 Z " fill="#657D97" transform="translate(137,276)"/>
<path d="M0 0 C1.32 1.32 2.64 2.64 4 4 C3.67 4.99 3.34 5.98 3 7 C2.01 7 1.02 7 0 7 C-0.93423645 3.98968256 -1.04449911 3.13349732 0 0 Z " fill="#335479" transform="translate(314,204)"/>
<path d="M0 0 C0.66 1.32 1.32 2.64 2 4 C0.68 5.32 -0.64 6.64 -2 8 C-2.66 7.67 -3.32 7.34 -4 7 C-3.02391783 4.07175348 -1.89213369 2.38573379 0 0 Z " fill="#627D92" transform="translate(345,343)"/>
<path d="M0 0 C0 0.66 0 1.32 0 2 C1.32 2.33 2.64 2.66 4 3 C-3.42857143 3.28571429 -3.42857143 3.28571429 -7 1 C-4 0 -4 0 0 0 Z " fill="#99ADBD" transform="translate(110,372)"/>
<path d="M0 0 C2.97 0.99 5.94 1.98 9 3 C7.02 3.99 7.02 3.99 5 5 C3.35 3.35 1.7 1.7 0 0 Z " fill="#688299" transform="translate(64,354)"/>
<path d="M0 0 C0.66 0.33 1.32 0.66 2 1 C1.01 2.485 1.01 2.485 0 4 C0.66 4.33 1.32 4.66 2 5 C-0.875 5.625 -0.875 5.625 -4 6 C-4.66 5.34 -5.32 4.68 -6 4 C-4.02 2.68 -2.04 1.36 0 0 Z " fill="#778DA4" transform="translate(124,289)"/>
<path d="M0 0 C3.96 1.98 3.96 1.98 8 4 C7.01 4.495 7.01 4.495 6 5 C5.67 5.66 5.34 6.32 5 7 C5 6.34 5 5.68 5 5 C4.01 5 3.02 5 2 5 C1.34 3.35 0.68 1.7 0 0 Z " fill="#4E6481" transform="translate(288,272)"/>
<path d="M0 0 C0.99 0.33 1.98 0.66 3 1 C2.39816251 3.02045442 1.72693904 5.02111039 1 7 C0.01 7.495 0.01 7.495 -1 8 C-1.125 2.25 -1.125 2.25 0 0 Z " fill="#7E94A8" transform="translate(365,317)"/>
<path d="M0 0 C0.33 2.64 0.66 5.28 1 8 C-1.52588702 5.63707344 -2.88820837 4.33537489 -4 1 C-1 0 -1 0 0 0 Z " fill="#6A809B" transform="translate(305,290)"/>
<path d="M0 0 C0.66 0 1.32 0 2 0 C3.20272819 2.40545638 3.10071472 3.94996953 3.0625 6.625 C3.05347656 7.44226563 3.04445313 8.25953125 3.03515625 9.1015625 C3.02355469 9.72804687 3.01195312 10.35453125 3 11 C2.67 11 2.34 11 2 11 C2 8.69 2 6.38 2 4 C1.34 4 0.68 4 0 4 C0 2.68 0 1.36 0 0 Z " fill="#19355A" transform="translate(278,164)"/>
<path d="M0 0 C0.66 1.32 1.32 2.64 2 4 C2.99 4 3.98 4 5 4 C4.67 5.98 4.34 7.96 4 10 C0 4 0 4 0 0 Z " fill="#889BB0" transform="translate(312,142)"/>
</svg>
